<svg xmlns="http://www.w3.org/2000/svg" version="1.1" xmlns:xlink="http://www.w3.org/1999/xlink" xmlns:svgjs="http://svgjs.dev/svgjs" width="100%" height="100%" viewBox="0 0 1000 600"><rect width="1000" height="600" x="0" y="0" fill="#ffffff"/><g><circle r="166.66666666666666" cx="363.16349283854163" cy="385.38573518031836" fill="#333333" transform="matrix(0.6361424586367624,0,0,0.6361424586367622,0,54.839759114723435)"/><path d="M399.4254517461381 377.9575191876904L399.4254517461381 394.13255380798796L336.4834692019369 394.13255380798796L336.4834692019369 460.38573003351814L316.7042149108122 460.38573003351814L316.7042149108122 310.38572600941853L409.62275618067343 310.38572600941853L409.62275618067343 326.67797102551526L336.4834692019369 326.67797102551526L336.4834692019369 377.9575191876904L399.4254517461381 377.9575191876904Z " fill="#ffffff" transform="matrix(0.6361424586367624,0,0,0.6361424586367622,0,54.839759114723435)"/><path d="M696.8212238960662 374.01070272266725L696.8212238960662 389.96753466984933L632.6759157605644 389.96753466984933L632.6759157605644 442.40538458323385L707.1700388183328 442.40538458323385L707.1700388183328 458.36221653041594L613.163485390369 458.36221653041594L613.163485390369 310.385726063704L706.158283169508 310.385726063704L706.158283169508 326.45818722789465L632.6759157605644 326.45818722789465L632.6759157605644 374.01070272266725L696.8212238960662 374.01070272266725ZM728.5036293564132 348.39883115526993L746.3105287757325 348.39883115526993L746.9175821650273 362.2165225877935Q759.521166818961 346.37531985762007 779.8430017082163 346.37531985762007L779.8430017082163 346.37531985762007Q814.7052106362988 346.37531985762007 814.9942836788204 385.68925364053246L814.9942836788204 385.68925364053246L814.9942836788204 458.36221653041594L796.2045359149284 458.36221653041594L796.2045359149284 385.60253172777595Q796.0889066979199 373.6927223758937 790.7699627155258 368.02689074247394Q785.4221114288797 362.33215180480215 774.1482627705446 362.33215180480215L774.1482627705446 362.33215180480215Q764.9846473226156 362.33215180480215 758.0758016063538 367.18857891916184Q751.166955890092 372.0739133377738 747.3222844245573 379.99451470286056L747.3222844245573 379.99451470286056L747.3222844245573 458.36221653041594L728.5036293564132 458.36221653041594L728.5036293564132 348.39883115526993ZM907.3820280686645 429.1947465400052L907.3820280686645 429.1947465400052Q907.3820280686645 421.56321821743984 901.6294745224883 417.3427517966272Q895.9058282805642 413.15119268006674 881.6256199800063 410.08701842933976Q867.3454116794486 407.0517514828649 858.9622934463274 402.77347045354793Q850.5791752132064 398.49518942423106 846.5610599221587 392.59809935679425Q842.5429446311113 386.70100928935733 842.5429446311113 378.57805679450564L842.5429446311113 378.57805679450564Q842.5429446311113 365.0783457087556 853.9613298107071 355.71237913106177Q865.4086222945549 346.37531985762007 883.1866144096219 346.37531985762007L883.1866144096219 346.37531985762007Q901.8896402607576 346.37531985762007 913.5392838743704 356.0303594778353Q925.1600201837313 365.68539909805054 925.1600201837313 380.717197309164L925.1600201837313 380.717197309164L906.2546432028308 380.717197309164Q906.2546432028308 372.99894707384226 899.6926851375948 367.419837353179Q893.1596343766108 361.8118203282636 883.1866144096219 361.8118203282636L883.1866144096219 361.8118203282636Q872.9245214001118 361.8118203282636 867.1430605496836 366.2924524873455Q861.3326923950032 370.7730846464274 861.3326923950032 377.9710034052107L861.3326923950032 377.9710034052107Q861.3326923950032 384.793127208716 866.7383582901535 388.2330964147209Q872.1151168810519 391.7019729249778 886.1929740518448 394.85286908846126Q900.2708312226376 398.0037652519446 909.0008371067844 402.368768194018Q917.7308429909309 406.7337711360914 921.9513094117436 412.89102694179746Q926.1717758325564 419.0193754432514 926.1717758325564 427.8650105444067L926.1717758325564 427.8650105444067Q926.1717758325564 442.6077357129989 914.3775956976825 451.5111854226584Q902.6123228670609 460.3857278280658 883.793667798917 460.3857278280658L883.793667798917 460.3857278280658Q870.5830297556882 460.3857278280658 860.4365659631868 455.7316518434711Q850.2611948664329 451.0486685546242 844.5086413202567 442.66555032150313Q838.7849950783328 434.28243208838217 838.7849950783328 424.5117632511583L838.7849950783328 424.5117632511583L857.5747428422247 424.5117632511583Q858.0950743187633 433.9644517416086 865.1484565562859 439.51465415801977Q872.2018387938082 445.0359492701788 883.793667798917 445.0359492701788L883.793667798917 445.0359492701788Q894.4604630679572 445.0359492701788 900.9356992204367 440.72876093660966Q907.3820280686645 436.42157260304054 907.3820280686645 429.1947465400052ZM957.391664424869 321.77520393904774L976.1814121887611 321.77520393904774L976.1814121887611 348.39883115526993L996.7055982077815 348.39883115526993L996.7055982077815 362.9392051940971L976.1814121887611 362.9392051940971L976.1814121887611 431.1315359248987Q976.1814121887611 437.72240129438694 978.9276060927144 441.0467412833832Q981.6737999966678 444.3421739681273 988.264665366156 444.3421739681273L988.264665366156 444.3421739681273Q991.5311907466481 444.3421739681273 997.22592968432 443.12806718953743L997.22592968432 443.12806718953743L997.22592968432 458.36221653041594Q989.7967524915194 460.3857278280658 982.7722775582494 460.3857278280658L982.7722775582494 460.3857278280658Q970.1976002085677 460.3857278280658 963.7801786645922 452.78310680975267Q957.391664424869 445.1515784871873 957.391664424869 431.1315359248987L957.391664424869 431.1315359248987L957.391664424869 362.9392051940971L937.3589025781351 362.9392051940971L937.3589025781351 348.39883115526993L957.391664424869 348.39883115526993L957.391664424869 321.77520393904774ZM1086.9542020829667 458.36221653041594L1086.5494998234367 447.4930701316108Q1075.5647242076234 460.3857278280658 1054.3178555822992 460.3857278280658L1054.3178555822992 460.3857278280658Q1036.7422145969972 460.3857278280658 1027.5496918448162 450.1814494270599Q1018.3571690926352 439.97717102605395 1018.2415398756267 419.94440917932L1018.2415398756267 419.94440917932L1018.2415398756267 348.39883115526993L1037.060194943771 348.39883115526993L1037.060194943771 419.4529850070336Q1037.060194943771 444.42889588088383 1057.382029833026 444.42889588088383L1057.382029833026 444.42889588088383Q1078.9179715008718 444.42889588088383 1086.0291683468986 428.38534202094525L1086.0291683468986 428.38534202094525L1086.0291683468986 348.39883115526993L1104.8478234150425 348.39883115526993L1104.8478234150425 458.36221653041594L1086.9542020829667 458.36221653041594ZM1133.8129422756883 448.5048257804357L1133.8129422756883 448.5048257804357Q1133.8129422756883 443.61949136182386 1136.7036727009022 440.381873285584Q1139.5944031261165 437.115347905092 1145.3758639765447 437.115347905092Q1151.186232131225 437.115347905092 1154.192591773448 440.381873285584Q1157.1700441114185 443.61949136182386 1157.1700441114185 448.5048257804357L1157.1700441114185 448.5048257804357Q1157.1700441114185 453.1878090692826 1154.192591773448 456.3387052327661Q1151.186232131225 459.48960139624944 1145.3758639765447 459.48960139624944Q1139.5944031261165 459.48960139624944 1136.7036727009022 456.3387052327661Q1133.8129422756883 453.1878090692826 1133.8129422756883 448.5048257804357ZM1196.5128851985828 348.39883115526993L1224.4662484104038 432.86597418002725L1251.696929015921 348.39883115526993L1270.8913790393426 348.39883115526993L1231.461816039422 458.36221653041594L1217.1527004346117 458.36221653041594L1177.2895278709088 348.39883115526993L1196.5128851985828 348.39883115526993ZM1288.9873515011832 348.39883115526993L1306.7653436162504 348.39883115526993L1307.3723970055453 362.2165225877935Q1319.9759816594787 346.37531985762007 1340.2978165487343 346.37531985762007L1340.2978165487343 346.37531985762007Q1375.1600254768168 346.37531985762007 1375.4780058235906 385.68925364053246L1375.4780058235906 385.68925364053246L1375.4780058235906 458.36221653041594L1356.6593507554462 458.36221653041594L1356.6593507554462 385.60253172777595Q1356.57262884269 373.6927223758937 1351.2247775560436 368.02689074247394Q1345.90583357365 362.33215180480215 1334.6319849153147 362.33215180480215L1334.6319849153147 362.33215180480215Q1325.4683694673859 362.33215180480215 1318.5595237511238 367.18857891916184Q1311.6506780348623 372.0739133377738 1307.7770992650753 379.99451470286056L1307.7770992650753 379.99451470286056L1307.7770992650753 458.36221653041594L1288.9873515011832 458.36221653041594L1288.9873515011832 348.39883115526993Z " fill="#333333" transform="matrix(0.6361424586367624,0,0,0.6361424586367622,0,54.839759114723435)"/></g></svg>